<svg xmlns="http://www.w3.org/2000/svg" viewBox="0,0,256,256" width="400px" height="400px" fill-rule="nonzero"><g fill="none" fill-rule="nonzero" stroke="none" stroke-width="1" stroke-linecap="butt" stroke-linejoin="miter" stroke-miterlimit="10" stroke-dasharray="" stroke-dashoffset="0" font-family="none" style="mix-blend-mode: normal"><g transform="scale(2.56,2.56)">
    <path
        d="M70,18.988h-39c-6.6,0 -12,5.4 -12,12v39c0,6.6 5.4,12 12,12h39c6.6,0 12,-5.4 12,-12v-39c0,-6.6 -5.4,-12 -12,-12z" fill="#ffffff"/>
    <rect x="71" y="50" width="11" height="17" fill="#ffffff"/>
    <rect x="71" y="34" width="11" height="17" fill="#ffffff"/>
    <path
        d="M73,83h-40.742c-7.874,0 -14.258,-6.384 -14.258,-14.258v-36.484c0,-7.874 6.384,-14.258 14.258,-14.258h40.742z" fill="#064e7f"/>
    <ellipse cx="47" cy="46" rx="7" ry="8" fill="#ffffff"/>
    <path d="M22.5,37.57c-0.28,0 -0.5,0.22 -0.5,0.5v2c0,0.27 0.22,0.5 0.5,0.5c0.28,0 0.5,-0.23 0.5,-0.5v-2c0,-0.28 -0.22,-0.5 -0.5,-0.5z" fill="#25262f"/>
    <path d="M22.5,41.57c-0.28,0 -0.5,0.22 -0.5,0.5v4c0,0.27 0.22,0.5 0.5,0.5c0.28,0 0.5,-0.23 0.5,-0.5v-4c0,-0.28 -0.22,-0.5 -0.5,-0.5z" fill="#25262f"/>
    <path d="M66.16,77.99h-33.32c-5.44,0 -9.84,-4.41 -9.84,-9.84v-18.66c0,-0.28 -0.22,-0.5 -0.5,-0.5c-0.28,0 -0.5,0.22 -0.5,0.5v18.66c0,5.99 4.85,10.84 10.84,10.84c13.387,0.003 26.773,0.007 40.16,0.01c0,-0.333 0,-0.667 0,-1c-2.28,-0.003 -4.56,-0.007 -6.84,-0.01z" fill="#25262f"/>
    <path d="M81.5,51h-9c-0.276,0 -0.5,-0.224 -0.5,-0.5c0,-0.276 0.224,-0.5 0.5,-0.5h9c0.276,0 0.5,0.224 0.5,0.5c0,0.276 -0.224,0.5 -0.5,0.5z" fill="#25262f"/>
    <path d="M82.5,35h-10c-0.276,0 -0.5,-0.224 -0.5,-0.5c0,-0.276 0.224,-0.5 0.5,-0.5h10c0.276,0 0.5,0.224 0.5,0.5c0,0.276 -0.224,0.5 -0.5,0.5z" fill="#25262f"/>
    <path d="M81.5,67h-9c-0.276,0 -0.5,-0.224 -0.5,-0.5c0,-0.276 0.224,-0.5 0.5,-0.5h9c0.276,0 0.5,0.224 0.5,0.5c0,0.276 -0.224,0.5 -0.5,0.5z" fill="#25262f"/>
    <path d="M47,54c-3.86,0 -7,-3.589 -7,-8c0,-4.411 3.14,-8 7,-8c3.86,0 7,3.589 7,8c0,4.411 -3.14,8 -7,8zM47,39c-3.309,0 -6,3.141 -6,7c0,3.859 2.691,7 6,7c3.309,0 6,-3.141 6,-7c0,-3.859 -2.691,-7 -6,-7z" fill="#25262f"/>
    <path d="M62.79,63.26c-0.25,0.34 -0.52,0.66 -0.81,0.98c-3.66,4.14 -9.02,6.76 -14.98,6.76c-5.95,0 -11.31,-2.61 -14.98,-6.75c-0.28,-0.32 -0.55,-0.64 -0.8,-0.98c0.11,-0.34 0.27,-0.68 0.49,-1c1.26,-1.95 4.16,-3.58 8.18,-4.5c2.22,-0.51 4.61,-0.77 7.11,-0.77c7.3,0 13.31,2.18 15.29,5.26c0.22,0.32 0.38,0.66 0.5,1z" fill="#ffffff"/>
    <path d="M38.5,23h-3c-0.276,0 -0.5,-0.224 -0.5,-0.5c0,-0.276 0.224,-0.5 0.5,-0.5h3c0.276,0 0.5,0.224 0.5,0.5c0,0.276 -0.224,0.5 -0.5,0.5z" fill="#25262f"/>
    <path d="M48.5,23h-7c-0.276,0 -0.5,-0.224 -0.5,-0.5c0,-0.276 0.224,-0.5 0.5,-0.5h7c0.276,0 0.5,0.224 0.5,0.5c0,0.276 -0.224,0.5 -0.5,0.5z" fill="#25262f"/>
    <path d="M47,31c-11.03,0 -20,8.97 -20,20c0,4.62 1.57,8.88 4.22,12.27c0.25,0.34 0.52,0.66 0.8,0.98c3.67,4.14 9.03,6.75 14.98,6.75c5.96,0 11.32,-2.62 14.98,-6.76c0.29,-0.32 0.56,-0.64 0.81,-0.98c2.64,-3.39 4.21,-7.64 4.21,-12.26c0,-11.03 -8.97,-20 -20,-20zM62.29,62.26c-0.21,0.29 -0.43,0.57 -0.66,0.85c-3.49,4.21 -8.75,6.89 -14.63,6.89c-5.88,0 -11.14,-2.68 -14.63,-6.88c-0.22,-0.28 -0.44,-0.56 -0.66,-0.85c-2.33,-3.15 -3.71,-7.05 -3.71,-11.27c0,-10.48 8.52,-19 19,-19c10.48,0 19,8.52 19,19c0,4.21 -1.38,8.11 -3.71,11.26z" fill="#25262f"/>
    <path d="M62.29,62.26c-1.98,-3.08 -7.99,-5.26 -15.29,-5.26c-2.5,0 -4.89,0.26 -7.11,0.77c-4.02,0.92 -6.92,2.55 -8.18,4.5c-0.22,0.32 -0.38,0.66 -0.49,1c0.25,0.34 0.52,0.66 0.8,0.98c0.03,-0.38 0.15,-0.76 0.35,-1.13c0.36,-0.69 0.99,-1.36 1.84,-1.96c1.41,-1.01 3.43,-1.86 5.9,-2.42c2.15,-0.49 4.46,-0.74 6.89,-0.74c7.03,0 13.12,2.23 14.63,5.11c0.2,0.37 0.32,0.75 0.35,1.13c0.29,-0.32 0.56,-0.64 0.81,-0.98c-0.12,-0.34 -0.28,-0.68 -0.5,-1z" fill="#25262f"/>
    <path d="M82,34h-10v-15h0.318c5.347,0 9.682,4.335 9.682,9.682z" fill="#ffffff"/>
    <path d="M70,82.988h-39c-7.18,0 -13,-5.82 -13,-13v-39c0,-7.18 5.82,-13 13,-13h39c7.18,0 13,5.82 13,13v39c0,7.18 -5.821,13 -13,13zM20,30.988v39c0,6.075 4.925,11 11,11h39c6.075,0 11,-4.925 11,-11v-39c0,-6.075 -4.925,-11 -11,-11h-39c-6.076,0 -11,4.925 -11,11z" fill="#25262f"/>
    <path d="M73,19.5v62c0,0.28 -0.22,0.5 -0.5,0.5c-0.28,0 -0.5,-0.22 -0.5,-0.5v-62c0,-0.28 0.22,-0.5 0.5,-0.5c0.28,0 0.5,0.22 0.5,0.5z" fill="#25262f"/>
    <path d="M72.5,23h-20c-0.276,0 -0.5,-0.224 -0.5,-0.5c0,-0.276 0.224,-0.5 0.5,-0.5h20c0.276,0 0.5,0.224 0.5,0.5c0,0.276 -0.224,0.5 -0.5,0.5z" fill="#25262f"/>
</g>
</g>
</svg>